<?xml version="1.0" encoding="iso-8859-1"?>
<!-- Generator: Adobe Illustrator 19.0.0, SVG Export Plug-In . SVG Version: 6.00 Build 0)  -->
<svg version="1.1" id="Layer_1" xmlns="http://www.w3.org/2000/svg" xmlns:xlink="http://www.w3.org/1999/xlink" x="0px" y="0px"
	 viewBox="0 0 572.083 66.931" style="enable-background:new 0 0 572.083 66.931;" xml:space="preserve">
<g id="XMLID_1_">
	<g id="XMLID_3_">
		<path id="XMLID_6_" style="fill:#FF671B;" d="M6.719,0v25.293l0.145,0.096c1.695-4.287,6.431-6.431,14.206-6.431
			c11.519,0,17.278,5.119,17.278,15.357v1.873v29.324h-6.719V36.188v-1.296c0-6.912-3.536-10.367-10.607-10.367
			c-5.696,0-9.503,1.015-11.422,3.048c-1.92,2.031-2.88,6.071-2.88,12.118v25.821H0V0H6.719z"/>
		<path id="XMLID_8_" style="fill:#FF671B;" d="M82.454,51.641h6.863l0.049,1.68c0,4.769-1.448,8.104-4.344,10.007
			c-2.896,1.905-7.975,2.856-15.238,2.856c-8.447,0-13.99-1.543-16.63-4.631c-2.64-3.087-3.96-9.574-3.96-19.461
			c0-9.15,1.328-15.293,3.984-18.43c2.656-3.135,7.854-4.703,15.598-4.703c8.447,0,13.982,1.36,16.606,4.079
			c2.623,2.72,3.935,8.447,3.935,17.181v3.6H56.297c0,7.231,0.775,11.839,2.328,13.822c1.552,1.984,5.175,2.975,10.871,2.975
			c5.407,0,8.918-0.471,10.534-1.415c1.615-0.944,2.424-2.984,2.424-6.119V51.641z M82.454,38.587l-0.048-2.159
			c0-4.96-0.816-8.183-2.448-9.67c-1.632-1.488-5.151-2.232-10.558-2.232c-5.44,0-8.967,0.872-10.583,2.615
			c-1.616,1.744-2.424,5.56-2.424,11.446H82.454z"/>
		<path id="XMLID_13_" style="fill:#FF671B;" d="M106.931,32.492h-6.671c0-5.343,1.207-8.935,3.623-10.775
			c2.415-1.84,7.143-2.759,14.182-2.759c7.647,0,12.815,1.128,15.502,3.383s4.031,6.552,4.031,12.886v30.284h-6.719l0.528-4.943
			l-0.144-0.049c-2.56,3.776-7.759,5.663-15.598,5.663c-11.583,0-17.374-4.655-17.374-13.965c0-5.535,1.296-9.359,3.888-11.471
			c2.592-2.112,7.279-3.167,14.062-3.167c8.063,0,12.893,1.584,14.494,4.751l0.144-0.049v-5.567c0-5.247-0.72-8.646-2.16-10.199
			c-1.44-1.552-4.592-2.328-9.455-2.328c-8.255,0-12.382,2.32-12.382,6.959C106.883,31.372,106.898,31.819,106.931,32.492z
			 M117.73,42.811c-5.152,0-8.504,0.545-10.055,1.632c-1.552,1.087-2.328,3.423-2.328,7.006c0,3.712,0.768,6.168,2.304,7.368
			c1.536,1.2,4.656,1.799,9.359,1.799c9.471,0,14.206-2.88,14.206-8.639c0-3.615-0.92-6.047-2.76-7.295
			C126.616,43.435,123.04,42.811,117.73,42.811z"/>
		<path id="XMLID_16_" style="fill:#FF671B;" d="M156.748,0v65.512h-6.719V0H156.748z"/>
		<path id="XMLID_18_" style="fill:#FF671B;" d="M192.888,19.63v5.567h-17.662v28.076c0,4.896,2.176,7.343,6.527,7.343
			c4.32,0,6.479-2.191,6.479-6.575l0.048-2.255l0.096-2.544h6.239l0.048,3.408c0,9.024-4.288,13.534-12.863,13.534
			c-8.863,0-13.294-3.758-13.294-11.278v-1.632V25.197h-6.335V19.63h6.335V8.591h6.719V19.63H192.888z"/>
		<path id="XMLID_20_" style="fill:#FF671B;" d="M207.286,0v25.293l0.145,0.096c1.695-4.287,6.431-6.431,14.206-6.431
			c11.519,0,17.278,5.119,17.278,15.357v1.873v29.324h-6.719V36.188v-1.296c0-6.912-3.536-10.367-10.607-10.367
			c-5.696,0-9.503,1.015-11.422,3.048c-1.92,2.031-2.88,6.071-2.88,12.118v25.821h-6.719V0H207.286z"/>
		<g id="XMLID_4_">
			<path id="XMLID_22_" style="fill:#0A46FC;" d="M247.708,65.994l4.601-39.855l-7.087-0.008l0.635-5.504l7.087,0.008l0.778-6.738
				c1.026-8.888,6.215-13.327,15.567-13.316c1.391,0.002,3.013,0.115,4.865,0.338l-0.635,5.504
				c-2.176-0.224-3.765-0.336-4.768-0.337c-4.887-0.006-7.607,2.396-8.162,7.204l-0.849,7.354l12.135,0.014l-0.635,5.504
				l-12.135-0.014l-4.601,39.855L247.708,65.994z"/>
			<path id="XMLID_24_" style="fill:#0A46FC;" d="M286.542,1.266l-0.86,7.449l-6.796-0.008l0.86-7.449L286.542,1.266z
				 M284.302,20.671l-5.236,45.358l-6.796-0.008l5.236-45.358L284.302,20.671z"/>
			<path id="XMLID_27_" style="fill:#0A46FC;" d="M320.806,20.713l-0.635,5.504l-17.864-0.02l-3.204,27.756
				c-0.559,4.84,1.363,7.261,5.764,7.266c4.369,0.005,6.803-2.159,7.304-6.493l0.306-2.23l0.387-2.515l6.311,0.007l-0.34,3.369
				c-1.03,8.921-5.881,13.375-14.554,13.365c-8.964-0.01-13.017-3.731-12.159-11.164l0.186-1.614l3.204-27.756l-6.407-0.007
				l0.635-5.504l6.407,0.007l1.26-10.913l6.796,0.008l-1.26,10.913L320.806,20.713z"/>
			<path id="XMLID_29_" style="fill:#0A46FC;" d="M328.572,20.721l6.553,0.007l-0.906,6.167l0.178,0.143
				c2.608-4.648,8.021-6.966,16.242-6.957c6.633,0.007,10.992,1.151,13.076,3.431s2.752,6.646,2.007,13.099l-3.407,29.511
				l-6.796-0.008l3.341-28.942l0.197-1.708c0.449-3.89-0.01-6.508-1.375-7.854c-1.366-1.346-4.217-2.021-8.554-2.026
				c-9.546-0.011-14.829,4.396-15.848,13.221l-3.15,27.282l-6.796-0.008L328.572,20.721z"/>
			<path id="XMLID_31_" style="fill:#0A46FC;" d="M408.458,52.462l6.941,0.008l-0.143,1.661c-0.544,4.714-2.39,8.01-5.535,9.888
				c-3.147,1.88-8.392,2.814-15.738,2.806c-8.543-0.01-13.974-1.542-16.291-4.598c-2.318-3.055-2.912-9.47-1.784-19.244
				c1.044-9.046,3.088-15.117,6.132-18.215c3.044-3.097,8.481-4.64,16.313-4.631c8.543,0.01,13.986,1.36,16.33,4.052
				c2.342,2.692,3.016,8.355,2.019,16.99l-0.411,3.559l-33.396-0.038c-0.825,7.149-0.567,11.705,0.777,13.667
				c1.343,1.963,4.895,2.947,10.655,2.954c5.468,0.006,9.074-0.456,10.816-1.387c1.741-0.931,2.792-2.947,3.15-6.047L408.458,52.462
				z M409.948,39.556l0.198-2.135c0.566-4.903,0.109-8.09-1.372-9.563c-1.48-1.473-4.956-2.212-10.424-2.218
				c-5.502-0.006-9.169,0.852-11.002,2.573c-1.834,1.722-3.086,5.494-3.757,11.313L409.948,39.556z"/>
			<path id="XMLID_34_" style="fill:#0A46FC;" d="M464.381,32.737l-6.795-0.008c0.365-3.162-0.064-5.125-1.287-5.885
				c-1.223-0.76-4.553-1.143-9.99-1.15c-5.048-0.006-8.298,0.394-9.751,1.199c-1.452,0.805-2.356,2.743-2.71,5.809
				c-0.537,4.65,1.464,7.088,6.002,7.315l5.452,0.291l6.903,0.34c8.366,0.421,12.077,4.727,11.131,12.92
				c-0.588,5.093-2.383,8.585-5.386,10.48c-3.002,1.895-8.209,2.838-15.619,2.829c-7.605-0.009-12.735-0.916-15.39-2.722
				c-2.656-1.807-3.706-5.113-3.151-9.922l0.333-2.466l7.038,0.008l-0.197,2.135c-0.343,2.973,0.204,4.959,1.643,5.957
				c1.438,0.998,4.439,1.499,9.002,1.505c5.597,0.006,9.339-0.512,11.223-1.553c1.884-1.041,3.019-3.223,3.402-6.544
				c0.551-4.776-1.39-7.168-5.823-7.173c-10.323-0.012-17.013-0.873-20.068-2.585c-3.054-1.711-4.272-5.255-3.651-10.633
				c0.588-5.091,2.266-8.482,5.035-10.173c2.767-1.688,7.987-2.529,15.655-2.52c12.298,0.014,18.028,3.643,17.192,10.885
				L464.381,32.737z"/>
			<path id="XMLID_36_" style="fill:#0A46FC;" d="M511.467,32.79l-6.796-0.008c0.365-3.162-0.064-5.125-1.287-5.885
				c-1.223-0.76-4.553-1.143-9.99-1.15c-5.048-0.006-8.299,0.394-9.75,1.199c-1.453,0.805-2.356,2.743-2.71,5.809
				c-0.537,4.65,1.463,7.088,6.001,7.315l5.453,0.291l6.903,0.34c8.366,0.421,12.076,4.727,11.13,12.92
				c-0.588,5.093-2.383,8.585-5.384,10.48c-3.003,1.895-8.209,2.838-15.619,2.829c-7.605-0.009-12.735-0.916-15.392-2.722
				c-2.656-1.807-3.706-5.113-3.151-9.922l0.334-2.466l7.038,0.008l-0.199,2.135c-0.343,2.973,0.205,4.959,1.643,5.957
				c1.439,0.998,4.439,1.499,9.002,1.505c5.598,0.006,9.339-0.512,11.224-1.553c1.884-1.041,3.018-3.223,3.401-6.544
				c0.551-4.776-1.389-7.168-5.823-7.173c-10.323-0.012-17.012-0.873-20.067-2.585c-3.056-1.711-4.272-5.255-3.651-10.633
				c0.588-5.091,2.266-8.482,5.034-10.173c2.767-1.688,7.987-2.529,15.656-2.52c12.297,0.014,18.028,3.643,17.192,10.885
				L511.467,32.79z"/>
		</g>
	</g>
	<linearGradient id="XMLID_64_" gradientUnits="userSpaceOnUse" x1="506.6547" y1="17.3361" x2="573.1934" y2="15.9247">
		<stop  offset="0" style="stop-color:#FFD92C"/>
		<stop  offset="0.4974" style="stop-color:#FCB525"/>
		<stop  offset="1" style="stop-color:#FF671B"/>
	</linearGradient>
	<path id="XMLID_5_" style="fill:url(#XMLID_64_);" d="M566.983,31.881h-36.452c-2.816,0-5.1-2.283-5.1-5.1V6.105
		c0-2.816,2.283-5.1,5.1-5.1h36.452c2.816,0,5.1,2.283,5.1,5.1v20.676C572.083,29.597,569.799,31.881,566.983,31.881z"/>
	<linearGradient id="XMLID_65_" gradientUnits="userSpaceOnUse" x1="525.3068" y1="49.9488" x2="581.1019" y2="49.9488">
		<stop  offset="0" style="stop-color:#0A46FC"/>
		<stop  offset="0.4974" style="stop-color:#469CFF"/>
		<stop  offset="1" style="stop-color:#5CBDFF"/>
	</linearGradient>
	<path id="XMLID_39_" style="fill:url(#XMLID_65_);" d="M566.983,65.392h-36.452c-2.816,0-5.1-2.283-5.1-5.1V39.605
		c0-2.816,2.283-5.1,5.1-5.1h36.452c2.816,0,5.1,2.283,5.1,5.1v20.687C572.083,63.109,569.799,65.392,566.983,65.392z"/>
</g>
<g id="XMLID_42_">
	<path id="XMLID_43_" style="fill:#FFFFFF;" d="M537.005,22.723h1.568l0.012,0.583c0,2.294-1.502,3.44-4.505,3.44
		c-1.927,0-3.201-0.362-3.82-1.087c-0.62-0.725-0.931-2.219-0.931-4.482c0-2.121,0.315-3.562,0.947-4.319
		c0.631-0.758,1.832-1.138,3.603-1.138c1.74,0,2.928,0.256,3.562,0.768c0.636,0.512,0.953,1.474,0.953,2.886h-1.569v-0.28
		c0-0.829-0.205-1.382-0.616-1.658c-0.41-0.276-1.229-0.415-2.453-0.415c-1.181,0-1.938,0.262-2.275,0.784
		c-0.336,0.523-0.504,1.696-0.504,3.519c0,1.778,0.192,2.91,0.577,3.396s1.283,0.729,2.694,0.729c1.195,0,1.954-0.159,2.275-0.477
		C536.844,24.653,537.005,23.903,537.005,22.723z"/>
	<path id="XMLID_45_" style="fill:#FFFFFF;" d="M545.196,15.72c1.979,0,3.265,0.344,3.854,1.031
		c0.591,0.688,0.886,2.182,0.886,4.481c0,2.302-0.295,3.795-0.886,4.482c-0.59,0.688-1.875,1.031-3.854,1.031
		c-1.972,0-3.253-0.344-3.843-1.031c-0.591-0.688-0.886-2.181-0.886-4.482c0-2.3,0.295-3.794,0.886-4.481
		C541.943,16.064,543.224,15.72,545.196,15.72z M545.196,17.02c-1.389,0-2.25,0.227-2.582,0.678
		c-0.333,0.452-0.499,1.631-0.499,3.535c0,1.905,0.166,3.084,0.499,3.535c0.332,0.452,1.193,0.679,2.582,0.679
		c1.397,0,2.262-0.227,2.595-0.679c0.332-0.451,0.498-1.63,0.498-3.535c0-1.904-0.166-3.083-0.498-3.535
		C547.457,17.246,546.593,17.02,545.196,17.02z"/>
	<path id="XMLID_48_" style="fill:#FFFFFF;" d="M552.378,15.877h1.568l-0.033,1.613l0.033,0.034
		c0.605-1.203,1.771-1.805,3.496-1.805c1.815,0,2.917,0.602,3.306,1.805h0.045c0.672-1.203,1.901-1.805,3.687-1.805
		c2.524,0,3.787,1.289,3.787,3.866v7.003h-1.568v-7.148c0-0.941-0.168-1.58-0.505-1.916c-0.336-0.337-0.971-0.505-1.904-0.505
		c-1.24,0-2.08,0.233-2.521,0.7c-0.44,0.467-0.661,1.358-0.661,2.673v6.196h-1.568v-7.003l-0.022-0.493
		c0-1.382-0.788-2.073-2.364-2.073c-2.137,0-3.205,1.162-3.205,3.485v6.084h-1.568V15.877z"/>
</g>
<g id="XMLID_50_">
	<path id="XMLID_51_" style="fill:#FFFFFF;" d="M532.722,52.575h-1.558c0-1.247,0.282-2.086,0.846-2.516
		c0.564-0.43,1.668-0.645,3.312-0.645c1.785,0,2.991,0.264,3.619,0.79c0.627,0.526,0.941,1.529,0.941,3.009v7.07h-1.569l0.123-1.154
		l-0.033-0.011c-0.598,0.881-1.812,1.322-3.642,1.322c-2.704,0-4.057-1.087-4.057-3.261c0-1.293,0.303-2.186,0.908-2.679
		c0.604-0.492,1.699-0.739,3.283-0.739c1.882,0,3.01,0.37,3.384,1.109l0.033-0.011v-1.3c0-1.226-0.168-2.02-0.504-2.382
		s-1.072-0.543-2.207-0.543c-1.928,0-2.892,0.542-2.892,1.625C532.711,52.313,532.715,52.418,532.722,52.575z M535.243,54.984
		c-1.202,0-1.984,0.127-2.347,0.381c-0.363,0.254-0.544,0.8-0.544,1.636c0,0.867,0.18,1.44,0.538,1.72
		c0.358,0.28,1.087,0.421,2.185,0.421c2.211,0,3.317-0.673,3.317-2.018c0-0.844-0.215-1.411-0.645-1.703
		C537.318,55.13,536.483,54.984,535.243,54.984z"/>
	<path id="XMLID_54_" style="fill:#FFFFFF;" d="M551.524,49.572v10.712h-1.568l0.112-1.4l-0.034-0.034
		c-0.545,1.062-1.711,1.592-3.496,1.592c-2.502,0-3.753-1.248-3.753-3.743v-7.126h1.568v7.126c0,0.972,0.16,1.621,0.481,1.95
		c0.321,0.328,0.953,0.493,1.894,0.493c1.233,0,2.079-0.245,2.538-0.734c0.46-0.489,0.689-1.388,0.689-2.694v-6.141H551.524z"/>
</g>
</svg>
